<mxfile host="app.diagrams.net" modified="2022-07-21T09:14:42.306Z" agent="5.0 (Macintosh; Intel Mac OS X 10_15_7) AppleWebKit/537.36 (KHTML, like Gecko) Chrome/103.0.0.0 Safari/537.36" etag="4YLOC3smS98a3uzcwaTH" version="20.1.2" type="github">
  <diagram id="L5vge3zMcWLBDNS9x-1o" name="第 1 页">
    <mxGraphModel dx="1186" dy="681" grid="1" gridSize="10" guides="1" tooltips="1" connect="1" arrows="1" fold="1" page="1" pageScale="1" pageWidth="827" pageHeight="1169" math="0" shadow="0">
      <root>
        <mxCell id="0" />
        <mxCell id="1" parent="0" />
        <mxCell id="aZAfNS0o0WtvmNeGCseg-5" value="" style="edgeStyle=orthogonalEdgeStyle;rounded=0;orthogonalLoop=1;jettySize=auto;html=1;" edge="1" parent="1" source="aZAfNS0o0WtvmNeGCseg-1" target="aZAfNS0o0WtvmNeGCseg-2">
          <mxGeometry relative="1" as="geometry" />
        </mxCell>
        <mxCell id="aZAfNS0o0WtvmNeGCseg-1" value="Store" style="rounded=0;whiteSpace=wrap;html=1;" vertex="1" parent="1">
          <mxGeometry x="310" y="110" width="120" height="60" as="geometry" />
        </mxCell>
        <mxCell id="aZAfNS0o0WtvmNeGCseg-6" value="" style="edgeStyle=orthogonalEdgeStyle;rounded=0;orthogonalLoop=1;jettySize=auto;html=1;" edge="1" parent="1" source="aZAfNS0o0WtvmNeGCseg-2" target="aZAfNS0o0WtvmNeGCseg-3">
          <mxGeometry relative="1" as="geometry" />
        </mxCell>
        <mxCell id="aZAfNS0o0WtvmNeGCseg-2" value="APP" style="shape=parallelogram;perimeter=parallelogramPerimeter;whiteSpace=wrap;html=1;fixedSize=1;" vertex="1" parent="1">
          <mxGeometry x="310" y="230" width="120" height="60" as="geometry" />
        </mxCell>
        <mxCell id="aZAfNS0o0WtvmNeGCseg-7" value="" style="edgeStyle=orthogonalEdgeStyle;rounded=0;orthogonalLoop=1;jettySize=auto;html=1;" edge="1" parent="1" source="aZAfNS0o0WtvmNeGCseg-3" target="aZAfNS0o0WtvmNeGCseg-4">
          <mxGeometry relative="1" as="geometry" />
        </mxCell>
        <mxCell id="aZAfNS0o0WtvmNeGCseg-3" value="Page" style="shape=parallelogram;perimeter=parallelogramPerimeter;whiteSpace=wrap;html=1;fixedSize=1;" vertex="1" parent="1">
          <mxGeometry x="310" y="330" width="120" height="60" as="geometry" />
        </mxCell>
        <mxCell id="aZAfNS0o0WtvmNeGCseg-11" value="" style="edgeStyle=orthogonalEdgeStyle;rounded=0;orthogonalLoop=1;jettySize=auto;html=1;" edge="1" parent="1" source="aZAfNS0o0WtvmNeGCseg-4" target="aZAfNS0o0WtvmNeGCseg-10">
          <mxGeometry relative="1" as="geometry" />
        </mxCell>
        <mxCell id="aZAfNS0o0WtvmNeGCseg-4" value="Component" style="shape=parallelogram;perimeter=parallelogramPerimeter;whiteSpace=wrap;html=1;fixedSize=1;" vertex="1" parent="1">
          <mxGeometry x="310" y="423" width="120" height="60" as="geometry" />
        </mxCell>
        <mxCell id="aZAfNS0o0WtvmNeGCseg-13" value="" style="edgeStyle=orthogonalEdgeStyle;rounded=0;orthogonalLoop=1;jettySize=auto;html=1;" edge="1" parent="1" source="aZAfNS0o0WtvmNeGCseg-10" target="aZAfNS0o0WtvmNeGCseg-12">
          <mxGeometry relative="1" as="geometry" />
        </mxCell>
        <mxCell id="aZAfNS0o0WtvmNeGCseg-10" value="onClick" style="rhombus;whiteSpace=wrap;html=1;" vertex="1" parent="1">
          <mxGeometry x="510" y="413" width="130" height="80" as="geometry" />
        </mxCell>
        <mxCell id="aZAfNS0o0WtvmNeGCseg-16" style="edgeStyle=orthogonalEdgeStyle;rounded=0;orthogonalLoop=1;jettySize=auto;html=1;entryX=1;entryY=0.5;entryDx=0;entryDy=0;fontSize=16;" edge="1" parent="1" source="aZAfNS0o0WtvmNeGCseg-12" target="aZAfNS0o0WtvmNeGCseg-1">
          <mxGeometry relative="1" as="geometry">
            <Array as="points">
              <mxPoint x="575" y="140" />
            </Array>
          </mxGeometry>
        </mxCell>
        <mxCell id="aZAfNS0o0WtvmNeGCseg-12" value="&lt;font style=&quot;font-size: 16px;&quot;&gt;useDispatch()&lt;/font&gt;" style="text;html=1;align=center;verticalAlign=middle;resizable=0;points=[];autosize=1;strokeColor=none;fillColor=none;" vertex="1" parent="1">
          <mxGeometry x="515" y="290" width="120" height="30" as="geometry" />
        </mxCell>
      </root>
    </mxGraphModel>
  </diagram>
</mxfile>
